HIERARCHY
ROOT Hips
{
  OFFSET 56.6817 57.9093 -10.3722
  CHANNELS 6 Xposition Yposition Zposition Zrotation Xrotation Yrotation
  JOINT spine
  {
    OFFSET 0 6.84637 0.3937
    CHANNELS 3 Zrotation Xrotation Yrotation
    JOINT spine1
    {
      OFFSET 0 9.49621 0
      CHANNELS 3 Zrotation Xrotation Yrotation
      JOINT spine2
      {
        OFFSET 0 9.09909 0
        CHANNELS 3 Zrotation Xrotation Yrotation
        JOINT Neck
        {
          OFFSET 0 23.3612 1.11378
          CHANNELS 3 Zrotation Xrotation Yrotation
          JOINT Head
          {
            OFFSET 0 7.05802 0
            CHANNELS 3 Zrotation Xrotation Yrotation
            End Site
            {
              OFFSET 0 17.0844 -5.63419
            }
          }
        }
        JOINT RightShoulder
        {
          OFFSET -3.83136 9.82631 -0.533491
          CHANNELS 3 Zrotation Xrotation Yrotation
          JOINT RightArm
          {
            OFFSET 0 12.8881 0
            CHANNELS 3 Zrotation Xrotation Yrotation
            JOINT RightArmRoll
            {
              OFFSET 0 6.50617 0
              CHANNELS 3 Zrotation Xrotation Yrotation
              JOINT RightForeArm
              {
                OFFSET 0 18.9501 0
                CHANNELS 3 Zrotation Xrotation Yrotation
                JOINT RightForeArmRoll
                {
                  OFFSET 0 7.30093 0
                  CHANNELS 3 Zrotation Xrotation Yrotation
                  JOINT RightHand
                  {
                    OFFSET 0 14.6514 0
                    CHANNELS 3 Zrotation Xrotation Yrotation
                    End Site
                    {
                      OFFSET 0 0 0
                    }
                  }
                }
              }
            }
          }
        }
        JOINT LeftShoulder
        {
          OFFSET 3.83136 9.82631 -0.533491
          CHANNELS 3 Zrotation Xrotation Yrotation
          JOINT LeftArm
          {
            OFFSET 0 12.8881 0
            CHANNELS 3 Zrotation Xrotation Yrotation
            JOINT LeftArmRoll
            {
              OFFSET 0 6.50617 0
              CHANNELS 3 Zrotation Xrotation Yrotation
              JOINT LeftForeArm
              {
                OFFSET 0 18.9501 0
                CHANNELS 3 Zrotation Xrotation Yrotation
                JOINT LeftForeArmRoll
                {
                  OFFSET 0 7.30093 0
                  CHANNELS 3 Zrotation Xrotation Yrotation
                  JOINT LeftHand
                  {
                    OFFSET 0 14.6514 0
                    CHANNELS 3 Zrotation Xrotation Yrotation
                    End Site
                    {
                      OFFSET 0 0 0
                    }
                  }
                }
              }
            }
          }
        }
      }
    }
  }
  JOINT RightUpLeg
  {
    OFFSET -6.06837 -1.11278 -0.933477
    CHANNELS 3 Zrotation Xrotation Yrotation
    JOINT RightUpLegRoll
    {
      OFFSET 0 17.1796 0
      CHANNELS 3 Zrotation Xrotation Yrotation
      JOINT RightLeg
      {
        OFFSET 0 -21.2743 0
        CHANNELS 3 Zrotation Xrotation Yrotation
        JOINT RightLegRoll
        {
          OFFSET 0 21.3439 0
          CHANNELS 3 Zrotation Xrotation Yrotation
          JOINT RightFoot
          {
            OFFSET 0 17.7652 0
            CHANNELS 3 Zrotation Xrotation Yrotation
            JOINT RightToeBase
            {
              OFFSET 0 14.8508 0
              CHANNELS 3 Zrotation Xrotation Yrotation
              End Site
              {
                OFFSET 0.0062947 7.19214 -0.829004
              }
            }
          }
        }
      }
    }
  }
  JOINT LeftUpLeg
  {
    OFFSET 6.06837 -1.11278 -0.933477
    CHANNELS 3 Zrotation Xrotation Yrotation
    JOINT LeftUpLegRoll
    {
      OFFSET 0 17.1797 0
      CHANNELS 3 Zrotation Xrotation Yrotation
      JOINT LeftLeg
      {
        OFFSET 0 21.2742 0
        CHANNELS 3 Zrotation Xrotation Yrotation
        JOINT LeftLegRoll
        {
          OFFSET 0 21.5412 0
          CHANNELS 3 Zrotation Xrotation Yrotation
          JOINT LeftFoot
          {
            OFFSET 0 17.5679 0
            CHANNELS 3 Zrotation Xrotation Yrotation
            JOINT LeftToeBase
            {
              OFFSET 0 14.8508 0
              CHANNELS 3 Zrotation Xrotation Yrotation
              End Site
              {
                OFFSET -0.0282102 7.19214 -0.829005
              }
            }
          }
        }
      }
    }
  }
}
MOTION
Frames: 9
Frame Time: 0.00208333
56.8538 66.6247 -3.34643 4.34334 37.5039 -4.30663 0.410775 2.05816 0.707932 0.793786 8.12381 1.35048 0.779548 9.76861 1.3397 -14.0256 45.4609 6.40876 5.2265 -3.49097 -0.947996 25.7105 -9.20873 -5.15609 133.729 36.6101 -71.3494 4.46974e-006 1.56034e-007 1.49718e-006 19.773 31.9469 -2.20098 5.54701e-006 -8.78788e-006 -2.99999 8.02911 -4.95156 0.697747 -37.8459 -2.83129 -0.460681 -127.126 40.9555 56.6101 -1.50077e-006 -1.10196e-005 6.31442e-006 -41.6417 29.048 7.29214 3.26402e-006 -1.40083e-006 2.99999 -8.02958 -4.95138 -0.697696 20.6535 73.0682 158.822 180 7.01654e-015 179.601 172.298 64.049 -177.631 -1.03311e-006 3.61795e-006 1.32716 -18.6151 66.9086 18.6553 8.13649 25.2327 -3.48774 -51.2361 68.673 -134.472 4.54188e-006 -4.6773e-006 -0.390926 -18.9507 -66.4798 -9.72148 -1.37232e-006 -3.99963e-006 -1.06608 19.4882 68.0529 -19.5808 -8.13649 25.2327 3.48774 
56.8502 66.5439 -3.39959 4.30454 37.4106 -4.2564 0.417381 2.05253 0.712948 0.806641 8.11266 1.3595 0.792327 9.75746 1.34851 -13.9008 45.4557 6.33621 5.15847 -3.50359 -0.956045 25.7477 -9.25599 -5.21086 133.638 36.5938 -71.4296 4.46974e-006 1.56034e-007 1.49718e-006 19.7462 32.0574 -2.20267 5.54701e-006 -8.78788e-006 -2.99999 8.02911 -4.95156 0.697747 -37.8224 -2.81267 -0.480463 -127.137 40.8903 56.5886 -1.50077e-006 -1.10196e-005 6.31442e-006 -41.6104 29.1625 7.33904 3.26402e-006 -1.40083e-006 2.99999 -8.02958 -4.95138 -0.697696 20.7474 73.012 158.766 180 7.01654e-015 179.599 172.262 64.1677 -177.605 -1.03311e-006 3.61795e-006 1.33138 -18.6157 66.9044 18.6522 8.13649 25.2327 -3.48774 -51.1227 68.6364 -134.612 4.54188e-006 -4.6773e-006 -0.393229 -18.9229 -66.6031 -9.72027 -1.37232e-006 -3.99963e-006 -1.07432 19.4756 68.0345 -19.5652 -8.13649 25.2327 3.48774 
56.8552 66.455 -3.4616 4.26309 37.3146 -4.20539 0.424552 2.0473 0.718456 0.820662 8.10234 1.3694 0.806265 9.74713 1.35819 -13.7746 45.4484 6.26121 5.09047 -3.51256 -0.965708 25.7858 -9.30343 -5.26579 133.545 36.5776 -71.5068 4.46974e-006 1.56034e-007 1.49718e-006 19.7194 32.1688 -2.20467 5.54701e-006 -8.78788e-006 -2.99999 8.02911 -4.95156 0.697747 -37.7999 -2.79344 -0.500679 -127.147 40.8262 56.5683 -1.50077e-006 -1.10196e-005 6.31442e-006 -41.5793 29.279 7.38701 3.26402e-006 -1.40083e-006 2.99999 -8.02958 -4.95138 -0.697696 20.8464 72.9588 158.706 180 7.01654e-015 179.597 172.225 64.2863 -177.578 -1.03311e-006 3.61795e-006 1.33558 -18.6164 66.9006 18.6493 8.13649 25.2327 -3.48774 -51.0142 68.6011 -134.745 4.54188e-006 -4.6773e-006 -0.395538 -18.8913 -66.7267 -9.71646 -1.37232e-006 -3.99963e-006 -1.08274 19.4628 68.0156 -19.5493 -8.13649 25.2327 3.48774 
56.8094 66.3687 -3.50738 4.21957 37.216 -4.154 0.432157 2.04245 0.724311 0.835588 8.09278 1.37992 0.821101 9.73755 1.36847 -13.6481 45.4395 6.1849 5.02291 -3.51862 -0.976524 25.8247 -9.35055 -5.32033 133.449 36.5617 -71.5807 4.46974e-006 1.56034e-007 1.49718e-006 19.6927 32.2809 -2.2071 5.54701e-006 -8.78788e-006 -2.99999 8.02911 -4.95156 0.697747 -37.7787 -2.77377 -0.521163 -127.157 40.7631 56.5486 -1.50077e-006 -1.10196e-005 6.31442e-006 -41.5487 29.397 7.43582 3.26402e-006 -1.40083e-006 2.99999 -8.02958 -4.95138 -0.697696 20.95 72.9084 158.643 180 7.01653e-015 179.595 172.186 64.4048 -177.55 -1.03311e-006 3.61795e-006 1.33977 -18.6174 66.897 18.6465 8.13649 25.2327 -3.48774 -50.9106 68.5671 -134.872 4.54188e-006 -4.6773e-006 -0.397854 -18.8563 -66.8506 -9.71038 -1.37232e-006 -3.99963e-006 -1.0913 19.4498 67.9963 -19.5332 -8.13649 25.2327 3.48774 
56.821 66.2823 -3.56846 4.17454 37.1148 -4.1026 0.44007 2.03794 0.730371 0.851157 8.08388 1.39079 0.836579 9.72865 1.3791 -13.5227 45.4294 6.10838 4.95624 -3.5225 -0.988032 25.8644 -9.39685 -5.37392 133.352 36.5462 -71.6508 4.46974e-006 1.56034e-007 1.49718e-006 19.6664 32.3934 -2.21007 5.54701e-006 -8.78788e-006 -2.99999 8.02911 -4.95156 0.697747 -37.7589 -2.7538 -0.541748 -127.166 40.7009 56.5289 -1.50077e-006 -1.10196e-005 6.31442e-006 -41.5184 29.5161 7.48523 3.26402e-006 -1.40083e-006 2.99999 -8.02958 -4.95138 -0.697696 21.0578 72.8608 158.577 180 7.01653e-015 179.593 172.145 64.5233 -177.52 -1.03311e-006 3.61795e-006 1.34395 -18.6184 66.8935 18.6439 8.13649 25.2327 -3.48774 -50.8118 68.5342 -134.994 4.54188e-006 -4.6773e-006 -0.400178 -18.8184 -66.9747 -9.70235 -1.37232e-006 -3.99963e-006 -1.09998 19.4366 67.9768 -19.5168 -8.13649 25.2327 3.48774 
56.8333 66.1717 -3.63207 4.12858 37.0111 -4.05155 0.448162 2.03372 0.736492 0.867107 8.07558 1.40174 0.852437 9.72035 1.3898 -13.3995 45.4187 6.03276 4.89086 -3.52494 -0.999769 25.9046 -9.44185 -5.42601 133.254 36.5314 -71.717 4.46974e-006 1.56034e-007 1.49718e-006 19.6408 32.506 -2.21369 5.54701e-006 -8.78788e-006 -2.99999 8.02911 -4.95156 0.697747 -37.7407 -2.73371 -0.562269 -127.173 40.6392 56.5088 -1.50077e-006 -1.10196e-005 6.31442e-006 -41.4887 29.6357 7.53503 3.26402e-006 -1.40083e-006 2.99999 -8.02958 -4.95138 -0.697696 21.169 72.8157 158.509 180 7.01653e-015 179.591 172.102 64.6417 -177.49 -1.03311e-006 3.61795e-006 1.34812 -18.6195 66.8901 18.6413 8.13649 25.2327 -3.48774 -50.7179 68.5025 -135.109 4.54188e-006 -4.6773e-006 -0.402511 -18.7781 -67.0992 -9.6927 -1.37232e-006 -3.99963e-006 -1.10874 19.4233 67.9572 -19.5004 -8.13649 25.2327 3.48774 
56.8274 66.0876 -3.68765 4.08227 36.9048 -4.00123 0.456304 2.02976 0.74253 0.883176 8.0678 1.41252 0.868418 9.71255 1.40033 -13.2797 45.4077 5.95915 4.82722 -3.52669 -1.01127 25.9452 -9.48505 -5.47604 133.155 36.5173 -71.7788 4.46974e-006 1.56034e-007 1.49718e-006 19.6161 32.6184 -2.21809 5.54701e-006 -8.78788e-006 -2.99999 8.02911 -4.95156 0.697747 -37.7243 -2.71363 -0.582558 -127.179 40.578 56.4877 -1.50077e-006 -1.10196e-005 6.31442e-006 -41.4595 29.7553 7.58496 3.26402e-006 -1.40083e-006 2.99999 -8.02958 -4.95138 -0.697696 21.2832 72.773 158.438 180 7.01653e-015 179.588 172.06 64.76 -177.459 -1.03311e-006 3.61795e-006 1.3523 -18.6206 66.8867 18.6388 8.13649 25.2327 -3.48774 -50.6287 68.4719 -135.219 4.54188e-006 -4.6773e-006 -0.404853 -18.7359 -67.2238 -9.68177 -1.37232e-006 -3.99963e-006 -1.11756 19.4101 67.9375 -19.4841 -8.13649 25.2327 3.48774 
56.8396 65.9978 -3.74678 4.03615 36.7962 -3.952 0.464368 2.02601 0.748341 0.899103 8.06045 1.42285 0.884261 9.7052 1.41041 -13.1645 45.397 5.88866 4.76573 -3.52846 -1.02209 25.9861 -9.52596 -5.52346 133.057 36.5042 -71.8361 4.46974e-006 1.56034e-007 1.49718e-006 19.5926 32.7303 -2.22337 5.54701e-006 -8.78788e-006 -2.99999 8.02911 -4.95156 0.697747 -37.7098 -2.69373 -0.60245 -127.182 40.517 56.4651 -1.50077e-006 -1.10196e-005 6.31442e-006 -41.431 29.8745 7.6348 3.26402e-006 -1.40083e-006 2.99999 -8.02958 -4.95138 -0.697696 21.3997 72.7325 158.365 180 -7.01653e-015 179.586 172.016 64.8782 -177.427 -1.03311e-006 3.61795e-006 1.35648 -18.6216 66.8832 18.6361 8.13649 25.2327 -3.48774 -50.5443 68.4424 -135.324 4.54188e-006 -4.6773e-006 -0.407206 -18.6924 -67.3487 -9.66991 -1.37232e-006 -3.99963e-006 -1.1264 19.397 67.9179 -19.4678 -8.13649 25.2327 3.48774 
56.8405 65.9081 -3.80317 3.99081 36.6852 -3.90424 0.472226 2.02245 0.75378 0.914625 8.05346 1.43248 0.899707 9.6982 1.41979 -13.0551 45.3869 5.8224 4.70683 -3.53101 -1.03174 26.0272 -9.56409 -5.56771 132.96 36.4923 -71.8885 4.46974e-006 1.56034e-007 1.49718e-006 19.5706 32.8415 -2.22965 5.54701e-006 -8.78788e-006 -2.99999 8.02911 -4.95156 0.697747 -37.6974 -2.67417 -0.621779 -127.182 40.4561 56.4404 -1.50077e-006 -1.10196e-005 6.31442e-006 -41.4032 29.9928 7.68431 3.26402e-006 -1.40083e-006 2.99999 -8.02958 -4.95138 -0.697696 21.5181 72.6941 158.29 180 7.01652e-015 179.584 171.973 64.9963 -177.396 -1.03311e-006 3.61795e-006 1.36069 -18.6226 66.8796 18.6334 8.13649 25.2327 -3.48774 -50.4645 68.4139 -135.423 4.54188e-006 -4.6773e-006 -0.409571 -18.648 -67.4739 -9.65747 -1.37232e-006 -3.99963e-006 -1.13523 19.3841 67.8984 -19.4517 -8.13649 25.2327 3.48774 
